# xmcd
#
# Track frame offsets:
#	150
#	17980
#	37996
#	58925
#	81430
#	100059
#	120789
#	143868
#	162548
#	180452
#	198919
#
# Disc length: 2912 seconds
#
# Revision: 5
# Processed by: cddbd v1.5.2PL0 Copyright (c) Steve Scherf et al.
# Submitted via: EasyCDDAExtractor 10.0.5.1
#
DISCID=8e0b5e0b
DTITLE=Alvin Lee - Zoom
DYEAR=1992
DGENRE=Blues-Rock
TTITLE0=A Little Bit Of Love
TTITLE1=Jenny Jenny
TTITLE2=Remember Me
TTITLE3=Anything For You
TTITLE4=The Price Of This Love
TTITLE5=Real Life Blues
TTITLE6=It Don't Come Easy
TTITLE7=Lost In Love
TTITLE8=Wake Up Moma
TTITLE9=Moving The Blues
TTITLE10=Use That Power
EXTD=YEAR: 1992
EXTT0=
EXTT1=
EXTT2=
EXTT3=
EXTT4=
EXTT5=
EXTT6=
EXTT7=
EXTT8=
EXTT9=
EXTT10=
PLAYORDER=
